<?xml version="1.0" standalone="no"?>
<!DOCTYPE svg PUBLIC "-//W3C//DTD SVG 1.1//EN" "http://www.w3.org/Graphics/SVG/1.1/DTD/svg11.dtd" >
<svg xmlns="http://www.w3.org/2000/svg">
<metadata>
This is a custom SVG webfont generated by Font Squirrel.
Copyright   : Digitized data copyright C 19921997 Monotype Typography Inc All rights reserved Monotype News Gothic is a trademark of Monotype Typography Inc which may be registered in certain jurisdictions
</metadata>
<defs>
<font id="webfontVKsUspoY" horiz-adv-x="1280" >
<font-face units-per-em="2048" ascent="1638" descent="-410" />
<missing-glyph horiz-adv-x="641" />
<glyph unicode=" "  horiz-adv-x="641" />
<glyph unicode="&#x09;" horiz-adv-x="641" />
<glyph unicode="&#xa0;" horiz-adv-x="641" />
<glyph unicode="!" horiz-adv-x="641" d="M241 463l164 1052h193l-244 -1052h-113zM114 0l43 227h203l-43 -227h-203z" />
<glyph unicode="&#x22;" horiz-adv-x="764" d="M268 1308l45 238h150l-45 -238l-84 -272h-88zM635 1308l45 238h151l-45 -238l-84 -272h-88z" />
<glyph unicode="#" horiz-adv-x="1366" d="M1259 524v-119h-335l-162 -405h-127l162 405h-412l-162 -405h-129l163 405h-186v119h234l149 371h-288v119h336l163 407h127l-163 -407h412l163 407h127l-163 -407h185v-119h-233l-148 -371h287zM433 524h412l148 371h-412z" />
<glyph unicode="$" horiz-adv-x="1208" d="M1061 1149q-87 180 -246 225l-109 -553q227 -150 287.5 -246.5t60.5 -208.5q1 -171 -112.5 -280t-320.5 -109q-52 0 -81 3l-49 -256h-123l52 266q-263 86 -375 380l139 48q68 -220 264 -297l119 614q-180 108 -250.5 200t-70.5 203q0 173 128 279t345 98l8 47h127 l-15 -63q114 -27 191 -88t160 -215zM596 889l96 503q-136 12 -220.5 -60t-84.5 -179q0 -68 42.5 -126.5t166.5 -137.5zM678 671l-111 -577q23 -3 46 -3q130 0 213 72t83 199q0 87 -50.5 158t-180.5 151z" />
<glyph unicode="%" horiz-adv-x="1921" d="M1644 1597l-1116 -1945h-121l1012 1751q-193 -78 -418 -78q-79 0 -151 10q53 -86 53 -192q0 -198 -117 -362t-280 -165q-147 0 -241.5 103.5t-94.5 267.5q0 194 114.5 347t282.5 153q79 0 145 -31q124 -37 256 -37q317 0 560 178h116zM575 1370q-126 0 -206 -118.5 t-80 -262.5q0 -116 61 -187t152 -71q114 0 199 129t85 268q1 106 -57.5 174t-153.5 68zM1466 -248q-146 0 -241 103t-95 268q0 193 115 346t283 153q147 0 241 -98.5t94 -245.5q0 -197 -117 -361.5t-280 -164.5zM1536 506q-127 0 -207 -118.5t-80 -262.5q1 -116 62 -187 t151 -71q115 0 200 128.5t85 268.5q0 106 -58.5 174t-152.5 68z" />
<glyph unicode="&#x26;" horiz-adv-x="1407" d="M1155 0l-131 139q-217 -169 -459 -169q-221 -1 -354 122.5t-133 325.5q0 359 419 509q-63 127 -63 240q0 166 97.5 272.5t242.5 106.5q130 0 215.5 -86.5t85.5 -222.5q0 -138 -89.5 -230.5t-293.5 -156.5q146 -265 344 -518q113 132 164 286l123 -41q-82 -207 -209 -346 q72 -86 211 -231h-170zM631 966q311 86 311 275q0 79 -51.5 129.5t-126.5 50.5q-86 0 -139.5 -66t-53.5 -172q0 -90 60 -217zM553 811q-330 -107 -330 -379q0 -153 97 -243t263 -91q181 0 359 139q-171 205 -389 574z" />
<glyph unicode="'" horiz-adv-x="393" d="M270 1306l47 240h148l-47 -240l-76 -268h-92z" />
<glyph unicode="(" horiz-adv-x="706" d="M768 1550l76 -90q-621 -519 -621 -1131q0 -195 62.5 -351.5t209.5 -317.5l-77 -92q-338 377 -338 755q0 323 174.5 638.5t513.5 588.5z" />
<glyph unicode=")" horiz-adv-x="706" d="M227 1462l76 86q338 -353 338 -758q0 -323 -176 -636.5t-512 -585.5l-76 92q301 245 461 540.5t159 595.5q1 191 -59.5 345t-210.5 321z" />
<glyph unicode="*" horiz-adv-x="960" d="M307 1452l129 71l149 -362l152 362l127 -71l-238 -316l390 52v-144l-390 45l238 -311l-127 -74l-152 359l-149 -359l-129 74l238 311l-388 -45v144l388 -52z" />
<glyph unicode="+" horiz-adv-x="1366" d="M155 596v131h478v479h131v-479h481v-131h-481v-475h-131v475h-478z" />
<glyph unicode="," horiz-adv-x="446" d="M33 0l43 229h196l-43 -229l-209 -301h-81l190 301h-96z" />
<glyph unicode="-" horiz-adv-x="715" d="M86 487l28 148h510l-28 -148h-510z" />
<glyph unicode="." horiz-adv-x="465" d="M30 0l43 229h199l-43 -229h-199z" />
<glyph unicode="/" horiz-adv-x="927" d="M-71 0l1011 1515h145l-1012 -1515h-144z" />
<glyph unicode="0" d="M585 -30q-212 0 -323.5 140.5t-112.5 407.5q0 189 78 461.5t217.5 419.5t341.5 147q197 0 313 -124.5t115 -399.5q1 -397 -166 -724.5t-463 -327.5zM303 485q0 -385 262 -385q239 1 368.5 303.5t129.5 638.5q0 381 -273 381q-230 0 -358.5 -318t-128.5 -620z" />
<glyph unicode="1" d="M663 123h240l-27 -123h-622l26 123h232l237 1192q-159 -85 -321 -88l24 124q240 42 389 164h99z" />
<glyph unicode="2" d="M221 129h815l-22 -129h-965q12 314 524 622q247 150 352 272t105 253q0 120 -75 194t-195 74q-266 0 -359 -328l-143 35q144 424 522 424q182 0 292.5 -111.5t110.5 -289.5q0 -158 -103.5 -300t-430.5 -332t-428 -384z" />
<glyph unicode="3" d="M798 778q287 -78 287 -340q0 -203 -134.5 -334.5t-354.5 -131.5q-360 0 -500 396l125 50q128 -316 364 -316q150 1 248.5 95t98.5 237q0 276 -379 276l-99 -2l29 136l64 -3q208 0 318 86t110 242q0 115 -70.5 180.5t-194.5 65.5q-220 0 -307 -232l-121 44 q113 319 439 319q183 0 293 -105t110 -266q0 -147 -84.5 -252.5t-241.5 -144.5z" />
<glyph unicode="4" d="M1186 375h-250l-76 -375h-145l75 375h-690l23 124l831 1016h207l-197 -1011h250zM864 1206l-571 -702h524l125 634q13 67 49 234q-34 -52 -127 -166z" />
<glyph unicode="5" d="M1188 1392h-627l-125 -503q110 94 260 94q180 0 300 -123.5t120 -310.5q0 -240 -148.5 -408.5t-371.5 -168.5q-149 0 -254.5 78t-192.5 257l121 49q111 -256 328 -256q156 1 261.5 129t104.5 311q1 139 -81.5 228.5t-211.5 89.5q-159 0 -288 -158l-115 47l193 768h753z " />
<glyph unicode="6" d="M1171 1253q-96 162 -299 162q-171 0 -295.5 -151.5t-177.5 -430.5q172 133 350 133q180 1 293 -114t113 -318q0 -239 -135 -400.5t-344 -161.5q-227 -1 -348 142.5t-121 407.5q0 409 182.5 716.5t488.5 307.5q247 0 400 -209zM366 686q-16 -94 -16 -168q0 -420 324 -420 q138 1 232.5 126.5t94.5 313.5q0 299 -278 299q-175 0 -357 -151z" />
<glyph unicode="7" d="M1227 1392l-848 -1392h-170l856 1382h-758l31 133h911z" />
<glyph unicode="8" d="M831 788q179 -101 247.5 -193t68.5 -204q0 -174 -144.5 -296.5t-369.5 -122.5q-229 -1 -370.5 116t-141.5 299q0 299 395 422q-234 143 -234 340q1 170 136 283.5t344 113.5q194 0 319.5 -103t124.5 -260q0 -255 -375 -395zM694 856q196 67 277 144t81 183 q0 107 -82 169.5t-221 62.5q-142 0 -229.5 -72t-87.5 -184q0 -188 262 -303zM649 735q-203 -53 -287 -132.5t-84 -205.5q1 -135 99 -215.5t254 -81.5q158 0 261 80.5t103 206.5q1 98 -69.5 174.5t-276.5 173.5z" />
<glyph unicode="9" d="M110 186l107 84q108 -172 299 -172q194 0 310.5 145t172.5 453q-185 -137 -366 -137q-177 0 -288.5 114t-111.5 310q0 235 132 399t335 164q229 0 354 -151.5t125 -411.5q0 -362 -159 -686.5t-508 -324.5q-253 0 -402 214zM1022 837q11 75 11 149q0 201 -81.5 315 t-236.5 114q-141 0 -233.5 -121t-92.5 -311q0 -297 270 -297q194 0 363 151z" />
<glyph unicode=":" horiz-adv-x="641" d="M282 852l43 223h199l-43 -223h-199zM119 0l43 229h198l-43 -229h-198z" />
<glyph unicode=";" horiz-adv-x="641" d="M284 850l43 225h197l-43 -225h-197zM121 0l45 231h196l-43 -225l-213 -307h-82l193 301h-96z" />
<glyph unicode="&#x37e;" horiz-adv-x="641" d="M284 850l43 225h197l-43 -225h-197zM121 0l45 231h196l-43 -225l-213 -307h-82l193 301h-96z" />
<glyph unicode="&#x3c;" horiz-adv-x="1366" d="M1224 385v-142l-1085 457v119l1085 457v-144l-909 -372z" />
<glyph unicode="=" horiz-adv-x="1366" d="M180 930v133h1085v-133h-1085zM180 463v131h1085v-131h-1085z" />
<glyph unicode="&#x3e;" horiz-adv-x="1366" d="M211 1132v144l1085 -459v-117l-1085 -457v142l909 373z" />
<glyph unicode="?" horiz-adv-x="854" d="M354 1253l-111 35q95 258 338 258q147 0 234.5 -86t87.5 -225q0 -203 -258 -406q-117 -92 -166 -167t-61 -201h-134q10 149 76.5 253t235.5 248q159 137 159 267q1 88 -53 143.5t-143 54.5q-140 0 -205 -174zM153 0l45 227h203l-45 -227h-203z" />
<glyph unicode="@" horiz-adv-x="2085" d="M1254 283q-133 -133 -207.5 -161t-154.5 -29q-126 1 -208 108t-82 269q0 237 124.5 406t312.5 169q74 0 151 -48t125 -136l26 184h153l-79 -525q-16 -105 -16 -165q0 -140 125 -140q140 0 230.5 128t90.5 331q0 320 -202 529.5t-538 208.5q-353 0 -592 -239.5 t-239 -593.5q0 -394 222.5 -615t620.5 -221q265 0 501 140l80 -130q-107 -66 -273.5 -110t-307.5 -44q-464 -1 -728 260t-264 720q0 422 283 701.5t717 279.5q370 0 613.5 -249t243.5 -617q1 -263 -132 -433t-342 -170q-197 0 -254 192zM1261 428l37 306q-104 185 -222 185 q-146 1 -233 -133.5t-88 -315.5q0 -255 206 -255q69 0 153 61t147 152z" />
<glyph unicode="A" horiz-adv-x="1292" d="M1018 0l-74 456h-617l-225 -456h-159l757 1515h227l246 -1515h-155zM796 1419l-405 -829h534z" />
<glyph unicode="B" horiz-adv-x="1319" d="M927 770q118 -43 183 -131t65 -202q0 -207 -138 -321q-139 -116 -425 -116h-514l291 1515h479q206 0 308 -96t102 -266q0 -294 -351 -383zM833 1382h-317l-103 -532h304q192 0 296.5 84t104.5 221q0 122 -68 175q-68 52 -212 52h-5zM663 717h-274l-111 -584h363 q176 0 275.5 84.5t99.5 220.5q0 109 -99 194t-254 85z" />
<glyph unicode="C" horiz-adv-x="1323" d="M1216 1083q-58 328 -362 328q-218 0 -382.5 -227.5t-164.5 -563.5q0 -242 103 -379t280 -137q248 0 401 266l129 -61q-214 -337 -542 -337h-3q-242 0 -385 172t-143 470q1 371 199.5 651.5t513.5 280.5q190 0 325.5 -114t172.5 -312z" />
<glyph unicode="D" horiz-adv-x="1407" d="M491 0h-393l295 1515h317h3q301 0 461 -177q161 -179 161 -484q0 -391 -228 -622.5t-616 -231.5zM725 1382h-205l-244 -1249h183q346 0 531 184t185 539q1 242 -123 384q-122 142 -324 142h-3z" />
<glyph unicode="E" horiz-adv-x="1161" d="M1229 1382h-709l-102 -524h573l-25 -133h-573l-117 -592h764l-24 -133h-918l295 1515h862z" />
<glyph unicode="F" horiz-adv-x="1042" d="M1157 1382h-639l-111 -549h549l-18 -133h-551l-135 -700h-154l295 1515h788z" />
<glyph unicode="G" horiz-adv-x="1470" d="M1214 0h-131l31 170q-168 -198 -424 -198h-3q-244 0 -391 180q-148 181 -149 476q0 356 196.5 637t508.5 281q207 0 339.5 -113.5t174.5 -322.5l-146 -37q-46 340 -374 340q-214 0 -376.5 -238t-162.5 -555q0 -242 109 -379t296 -137q165 1 286.5 100t131.5 154l49 260 h-424l23 125h578z" />
<glyph unicode="H" horiz-adv-x="1505" d="M1198 0h-154l137 715h-786l-141 -715h-156l293 1515h156l-132 -671h789l131 671h154z" />
<glyph unicode="I" horiz-adv-x="559" d="M252 0h-154l291 1515h153z" />
<glyph unicode="J" horiz-adv-x="870" d="M651 383q-46 -241 -140.5 -326t-246.5 -85q-143 0 -229 89.5t-86 235.5v28l131 31q3 -260 180 -260q183 0 231 248l228 1171h151z" />
<glyph unicode="K" horiz-adv-x="1263" d="M723 897l422 -897h-168l-365 794l-250 -219l-110 -575h-154l293 1515h154l-146 -749l819 749h203z" />
<glyph unicode="L" horiz-adv-x="1120" d="M975 0h-877l291 1515h153l-270 -1382h725z" />
<glyph unicode="M" horiz-adv-x="1747" d="M1439 0h-153l268 1396l-751 -1396h-76l-211 1396l-273 -1396h-145l295 1515h235q70 -415 185 -1241q127 254 659 1241h256z" />
<glyph unicode="N" horiz-adv-x="1546" d="M1233 0h-109l-610 1388l-268 -1388h-148l297 1515h221l531 -1216l235 1214l148 2z" />
<glyph unicode="O" horiz-adv-x="1470" d="M692 -28q-551 0 -551 622q0 347 201 649.5t532 302.5q258 0 399.5 -160t141.5 -452q0 -353 -197 -657.5t-526 -304.5zM299 545q0 -207 102 -323.5t270 -117.5q261 1 422.5 272t161.5 576q0 201 -106.5 330t-264.5 129q-262 0 -423.5 -274t-161.5 -592z" />
<glyph unicode="P" horiz-adv-x="1292" d="M784 674h-405l-129 -674h-152l291 1515h498q221 0 331.5 -104t110.5 -268q0 -203 -147.5 -336t-397.5 -133zM874 1382h-356l-115 -575h369q191 0 295 89.5t104 243.5q0 242 -297 242z" />
<glyph unicode="Q" horiz-adv-x="1470" d="M719 -28q-33 -87 -33 -150q0 -88 162 -88q129 0 221 12l-23 -125q-71 -8 -205 -8q-155 0 -220.5 39t-65.5 127q0 76 33 200q-447 65 -447 615q0 347 201 649.5t532 302.5q258 0 399.5 -160t141.5 -452q0 -334 -184 -638t-512 -324zM299 545q0 -207 102 -323.5t270 -117.5 q261 1 422.5 272t161.5 576q0 201 -106.5 330t-264.5 129q-262 0 -423.5 -274t-161.5 -592z" />
<glyph unicode="R" horiz-adv-x="1335" d="M884 696l254 -696h-161l-240 696h-352l-133 -696h-154l291 1515h493q217 0 333 -96t116 -272q0 -193 -117 -309t-330 -142zM891 1382h-375l-105 -553h400q172 0 270 85t98 226q1 113 -76 178q-76 64 -208 64h-4z" />
<glyph unicode="S" horiz-adv-x="1190" d="M1077 1118q-69 295 -356 295q-146 0 -230.5 -70.5t-85.5 -189.5q0 -60 25 -110.5t67 -86t207 -126.5q202 -110 281.5 -196.5t79.5 -244.5q0 -191 -138.5 -304t-363.5 -113q-221 0 -353 125.5t-157 365.5l135 26q53 -385 373 -385q166 1 259 75t93 200q1 93 -54 160.5 t-222 148.5q-207 100 -295 202.5t-88 239.5q0 187 130.5 301.5t350.5 114.5q381 0 475 -393z" />
<glyph unicode="T" horiz-adv-x="1188" d="M1304 1382h-473l-268 -1382h-154l269 1382h-475l24 133h1104z" />
<glyph unicode="U" horiz-adv-x="1458" d="M1261 467q-93 -495 -598 -495q-241 0 -366 119.5t-125 301.5q0 100 22 217l174 905h154l-170 -872q-25 -129 -25 -238q0 -135 88 -218t244 -83q197 0 309 100.5t156 333.5l184 977h152z" />
<glyph unicode="V" horiz-adv-x="1216" d="M534 0h-147l-170 1515h160l127 -1290l698 1290h168z" />
<glyph unicode="W" horiz-adv-x="1798" d="M1939 1515l-784 -1515h-148l37 1280l-618 -1280h-148v1515h154l-17 -1247l599 1247h169l-38 -1249l628 1249h166z" />
<glyph unicode="X" horiz-adv-x="1196" d="M1345 1515l-613 -746l306 -769h-158l-248 649l-524 -649h-181l648 790l-289 725h158l231 -603l488 603h182z" />
<glyph unicode="Y" horiz-adv-x="1102" d="M639 612l-119 -612h-154l123 637l-272 878h160l217 -739l493 739h168z" />
<glyph unicode="Z" horiz-adv-x="1206" d="M1270 1413l-1098 -1280h866l-29 -133h-1048l25 131l1071 1251h-756l28 133h961z" />
<glyph unicode="[" horiz-adv-x="776" d="M28 -409l369 1924h516l-24 -127h-371l-320 -1660h371l-24 -137h-517z" />
<glyph unicode="\" horiz-adv-x="930" d="M219 1515h129l448 -1515h-129z" />
<glyph unicode="]" horiz-adv-x="774" d="M213 1386l24 129h514l-368 -1924h-514l25 135h370l319 1660h-370z" />
<glyph unicode="^" horiz-adv-x="1194" d="M323 719h-147l414 798h149l401 -798h-143l-338 655z" />
<glyph unicode="_" horiz-adv-x="1024" d="M895 -256h-1048v103h1048v-103z" />
<glyph unicode="`" horiz-adv-x="682" d="M614 1210h-115l-260 330h220z" />
<glyph unicode="a" horiz-adv-x="1065" d="M907 614l-72 -356q-24 -121 -24 -258h-135q-11 46 -11 121q-176 -143 -315 -143q-130 0 -217.5 89.5t-87.5 218.5q0 168 152.5 260.5t426.5 92.5h146q14 71 14 127q0 99 -63 154t-174 55q-117 0 -240 -123l-100 94q197 151 358 151q164 0 263 -88q97 -87 97 -226 q0 -79 -18 -169zM645 524q-455 0 -455 -229q0 -82 54.5 -137.5t132.5 -55.5q132 0 311 137l59 285h-102z" />
<glyph unicode="b" horiz-adv-x="1179" d="M250 147l-50 -147h-133q25 42 66 256l242 1259h143l-107 -561q130 143 316 143h3q166 0 260 -113q95 -115 95 -325q0 -295 -140 -488t-349 -193q-189 0 -346 169zM379 790l-99 -524q139 -168 291 -168q163 1 266 159t103 404q0 314 -250 314q-180 0 -311 -185z" />
<glyph unicode="c" horiz-adv-x="1048" d="M868 758q-50 219 -252 219q-154 0 -263.5 -153t-109.5 -378q0 -159 77.5 -248t213.5 -90q197 0 291 211l115 -51q-140 -290 -424 -290q-187 0 -302 133.5t-116 347.5q1 260 148 449t366 189h2q298 0 391 -313z" />
<glyph unicode="d" horiz-adv-x="1179" d="M891 0h-129l20 129q-92 -91 -162.5 -121t-156.5 -30q-162 0 -264.5 125t-102.5 343q0 288 143.5 469.5t360.5 181.5q164 0 330 -141l108 559h143zM798 272l107 547q-122 156 -295 156q-162 0 -265.5 -154.5t-103.5 -374.5q0 -157 70.5 -251.5t185.5 -94.5q175 0 301 172z " />
<glyph unicode="e" horiz-adv-x="1100" d="M1005 532h-759l-9 -86q-1 -7 -1 -15q0 -46 19 -120q22 -88 91.5 -148.5t175.5 -60.5q197 0 338 254l117 -63q-190 -315 -478 -315q-184 0 -293 126.5t-110 343.5q1 274 150 462q149 187 383 187h2q185 0 286 -111.5t101 -316.5q0 -45 -13 -137zM272 651h598q8 32 8 73 q0 115 -67 184q-68 69 -180 69q-269 0 -359 -326z" />
<glyph unicode="f" horiz-adv-x="604" d="M715 1368q-40 14 -80 14q-55 0 -90 -34t-82 -273h192l-20 -123h-197l-182 -952h-144l183 952h-183l23 123h184q50 302 123.5 371t185.5 69q57 0 109 -16z" />
<glyph unicode="g" horiz-adv-x="1134" d="M1136 960q-94 -3 -161 -47q53 -93 53 -188q0 -158 -126.5 -270.5t-316.5 -112.5q-122 0 -206 47q-162 -37 -162 -113q0 -75 276 -96q297 -22 406.5 -95t109.5 -214q0 -145 -122 -224t-351 -79q-254 0 -395 81t-141 222q0 163 209 221q-125 51 -125 156q0 122 207 194 q-123 105 -123 254q0 167 124 284q122 117 309 117h3q176 0 297 -100q134 100 255 100h5zM307 704q0 -111 76 -181t192 -71q141 0 227.5 75.5t86.5 195.5q0 118 -78 191t-207 73q-132 0 -214.5 -80t-82.5 -203zM338 69q-205 -67 -205 -196q0 -186 391 -186q348 0 348 172 q0 71 -75.5 116.5t-225 62.5t-233.5 31z" />
<glyph unicode="h" horiz-adv-x="1171" d="M1026 721l-142 -721h-143l133 690q13 65 13 104q0 82 -47 126q-46 44 -118 44h-3q-155 0 -344 -223l-146 -741h-143l291 1515h143l-115 -604q174 186 344 186q125 0 205 -80t80 -214q0 -41 -8 -82z" />
<glyph unicode="i" horiz-adv-x="524" d="M229 0h-143l211 1075h143zM487 1331h-143l35 184h143z" />
<glyph unicode="j" horiz-adv-x="524" d="M223 -57q-51 -267 -130.5 -324t-177.5 -57q-36 0 -77 6l23 135q37 -6 59 -6q107 0 135 146l242 1232h143zM489 1335h-143l35 180h143z" />
<glyph unicode="k" horiz-adv-x="975" d="M590 682l260 -682h-156l-211 588l-166 -144l-88 -444h-143l295 1515h143l-170 -878l502 438h196z" />
<glyph unicode="l" horiz-adv-x="524" d="M229 0h-143l291 1515h143z" />
<glyph unicode="m" horiz-adv-x="1812" d="M1661 692l-133 -692h-144l137 712q9 45 9 84q0 78 -45.5 123t-114.5 45q-150 0 -352 -227l-140 -737h-143l141 741q4 21 4 43q0 178 -163 178q-157 0 -342 -225l-146 -737h-143l207 1075h131l-37 -193q175 215 362 215q106 0 177.5 -60t89.5 -169q197 229 380 229 q121 0 199 -79.5t78 -208.5q0 -55 -12 -117z" />
<glyph unicode="n" horiz-adv-x="1171" d="M1028 727l-139 -727h-148l131 671q12 62 12 125q0 78 -46 122q-45 44 -120 44h-3q-163 0 -338 -219l-146 -743h-145l211 1075h129l-35 -182q176 204 362 204q125 0 203 -81t78 -213q0 -45 -6 -76z" />
<glyph unicode="o" horiz-adv-x="1110" d="M104 444q0 277 151.5 465t368.5 188q174 0 276.5 -128.5t102.5 -342.5q0 -265 -151.5 -456.5t-364.5 -191.5q-177 0 -280 125.5t-103 340.5zM248 420q0 -143 69.5 -230.5t175.5 -87.5q150 0 258.5 161.5t108.5 383.5q0 151 -69 238.5t-181 87.5q-145 0 -253.5 -162 t-108.5 -391z" />
<glyph unicode="p" horiz-adv-x="1179" d="M252 112l-105 -544h-143l293 1507h125l-23 -131q145 153 318 153q177 0 270.5 -115.5t93.5 -336.5q0 -284 -147 -475q-149 -192 -369 -192q-163 0 -313 134zM385 790l-105 -530q112 -158 277 -158q157 0 268 163.5t111 391.5q0 318 -250 318q-84 0 -168.5 -50.5 t-132.5 -134.5z" />
<glyph unicode="q" horiz-adv-x="1179" d="M1038 790l-235 -1222h-144l103 542q-139 -132 -310 -132q-356 0 -356 462q0 275 148.5 466t367.5 191q191 0 324 -163q24 90 51 141h127q-29 -42 -76 -285zM788 246l111 581q-124 148 -285 148q-162 0 -268 -161t-107 -388q0 -154 67 -239.5t181 -86.5q164 0 301 146z " />
<glyph unicode="r" horiz-adv-x="700" d="M729 954q-149 -10 -251.5 -108.5t-127.5 -225.5l-121 -620h-143l207 1075h135l-43 -213q142 229 389 229z" />
<glyph unicode="s" horiz-adv-x="907" d="M745 825q-75 156 -233 156q-93 0 -154 -50.5t-61 -121.5q0 -101 200 -191q151 -67 213 -137t62 -180q0 -139 -104.5 -231t-266.5 -92q-268 0 -409 292l120 57q65 -132 128.5 -180.5t154.5 -48.5q106 0 171 55.5t65 139.5q0 51 -33 95t-162 108q-158 77 -219.5 137 t-61.5 161q0 134 100.5 218.5t256.5 84.5q232 0 346 -217z" />
<glyph unicode="t" horiz-adv-x="657" d="M680 952h-238l-123 -633q-12 -64 -12 -102q0 -58 22 -80t78 -23q81 0 176 37l-24 -123q-110 -50 -207 -50q-193 0 -193 204q0 69 25 195l115 575h-197l23 123h196l70 364h143l-67 -364h235z" />
<glyph unicode="u" horiz-adv-x="1171" d="M874 0h-131l35 186q-179 -208 -363 -208h-3q-118 0 -195 79q-78 80 -78 221q0 66 14 137l133 660h144l-127 -651q-19 -95 -19 -158q0 -70 45 -111t121 -41q157 0 344 226l144 735h143z" />
<glyph unicode="v" horiz-adv-x="919" d="M432 0h-152l-164 1075h154l113 -903l438 903h152z" />
<glyph unicode="w" horiz-adv-x="1452" d="M1503 1075l-522 -1075h-154l-49 876l-385 -876h-158l-82 1075h146l49 -897l401 897h140l45 -889l419 889h150z" />
<glyph unicode="x" horiz-adv-x="915" d="M543 558l267 -558h-154l-204 439l-328 -439h-167l436 567l-243 508h154l181 -392l292 392h163z" />
<glyph unicode="y" horiz-adv-x="940" d="M366 -166q-134 -266 -336 -266q-71 0 -136 31l24 127q64 -25 112 -25q146 0 269 277l-176 1097h153l121 -909l432 909h164z" />
<glyph unicode="z" horiz-adv-x="944" d="M950 956l-799 -831h654l-23 -125h-823l25 135l784 817h-600l20 123h783z" />
<glyph unicode="{" horiz-adv-x="682" d="M585 -405q-181 0 -248 85t-67 271q0 229 -10.5 322t-60 148.5t-144.5 59.5v147q94 5 143.5 59.5t60.5 144.5t11 325q1 187 68 272.5t247 85.5h50v-141h-23q-122 0 -156 -46.5t-34 -168.5v-150q0 -207 -46 -299.5t-180 -154.5q119 -48 172.5 -141.5t53.5 -315.5v-147 q0 -122 34 -168.5t156 -46.5h23v-141h-50z" />
<glyph unicode="|" horiz-adv-x="1087" d="M477 -409v1924h133v-1924h-133z" />
<glyph unicode="}" horiz-adv-x="682" d="M119 -405v141h22q123 0 157 47t34 168v147q0 224 53 317t170 140q-133 62 -178 154.5t-45 299.5v150q0 121 -34 168t-157 47h-22v141h49q181 1 248.5 -85t66.5 -273q0 -228 11 -320.5t60.5 -148t143.5 -60.5v-147q-94 -4 -142.5 -58t-60.5 -144.5t-12 -327.5 q0 -187 -67 -271.5t-248 -84.5h-49z" />
<glyph unicode="~" horiz-adv-x="1343" d="M1263 942v-146q-151 -127 -286 -127q-92 0 -267 81q-174 81 -237 81q-126 0 -293 -137v143q152 125 295 125q87 0 261 -80q174 -81 237 -81q125 0 290 141z" />
<glyph d="M340 930h799l-23 -115h-803q-10 -71 -12 -115h795l-23 -114h-774q10 -234 108.5 -359t262.5 -125q123 0 211 64.5t172 204.5l125 -62q-116 -176 -237 -258t-286 -82q-223 0 -361 162.5t-147 454.5h-92l23 114h72q4 50 14 115h-109l23 115h110q90 302 257.5 459t392.5 157 q171 0 292 -96t175 -279l-138 -36q-75 288 -336 288q-154 0 -288.5 -131t-202.5 -362z" />
<glyph unicode="&#xa1;" horiz-adv-x="641" d="M278 860l45 227h201l-45 -227h-201zM28 -432l250 1056h111l-164 -1056h-197z" />
<glyph unicode="&#xa2;" horiz-adv-x="1044" d="M868 753q-34 142 -145 199l-273 -840q61 -14 95 -14q174 0 284 219l111 -53q-145 -286 -410 -286q-55 0 -119 10l-133 -416h-100l143 454q-217 134 -217 430q1 252 147.5 443.5t362.5 191.5l51 -2l115 359h100l-122 -379q180 -79 235 -291zM362 153l266 826 q-175 -7 -278.5 -160t-103.5 -375q0 -190 116 -291z" />
<glyph unicode="&#xa3;" horiz-adv-x="1253" d="M1081 1202q2 18 2 53q1 76 -46 121t-128 45q-130 1 -201 -106.5t-92 -442.5h361l-21 -114h-340q-26 -377 -90 -512q161 -123 264 -123q168 0 187 235h145q-21 -184 -108.5 -285t-219.5 -101q-124 0 -325 161q-120 -161 -256 -161q-87 0 -145 57.5t-58 146.5 q0 93 61.5 154t147.5 61q96 0 196 -70q48 115 48 389l-2 48h-306l25 114h281q24 674 454 674q318 0 312 -344h-146zM217 289q-41 0 -72 -32.5t-31 -78.5q0 -43 27 -71.5t68 -28.5q92 0 159 135q-99 76 -151 76z" />
<glyph unicode="&#xa4;" horiz-adv-x="1409" d="M327 1151l127 -127q137 90 273 90q144 0 274 -90l127 127l88 -90l-127 -127q90 -132 90 -271q0 -144 -90 -272l127 -127l-88 -88l-127 125q-130 -90 -274 -90q-140 0 -271 90l-127 -125l-90 88l127 127q-90 128 -90 272t90 273l-127 125zM727 338q135 0 230 95t95 230 q0 148 -92.5 237t-231.5 89t-232 -89t-93 -237q1 -135 95 -230t229 -95z" />
<glyph unicode="&#xa5;" horiz-adv-x="1194" d="M1122 659h-412l-30 -47l-35 -174h432l-20 -113h-433l-63 -325h-152l64 325h-443l21 113h444l39 199l-8 22h-430l23 113h372l-229 743h147l219 -743l498 743h166l-504 -743h357z" />
<glyph unicode="&#xa6;" horiz-adv-x="1087" d="M477 790v725h133v-725h-133zM477 -409v724h133v-724h-133z" />
<glyph unicode="&#xa7;" horiz-adv-x="1113" d="M915 1218q-7 96 -67.5 149.5t-154.5 53.5q-96 0 -161.5 -54t-65.5 -134q0 -64 52.5 -122t186.5 -144q163 -103 221.5 -187t58.5 -180q0 -122 -80 -221t-279 -206q97 -73 131.5 -130.5t34.5 -128.5q1 -144 -113.5 -245t-294.5 -101q-154 0 -246.5 76.5t-107.5 216.5 l154 35q23 -203 228 -203q94 0 159 55t65 131q0 120 -222 259q-162 102 -227 187.5t-65 188.5q0 118 73 214t282 215q-164 116 -164 267q0 141 119.5 238.5t301.5 97.5q301 0 338 -290zM560 883q-298 -159 -298 -332q0 -60 51 -129t228 -191q302 147 302 328 q1 63 -51.5 133.5t-231.5 190.5z" />
<glyph unicode="&#xa8;" horiz-adv-x="682" d="M176 1249l35 174h174l-35 -174h-174zM585 1249l35 174h174l-34 -174h-175z" />
<glyph unicode="&#xa9;" horiz-adv-x="1714" d="M147 790q0 314 221 535t532 221q312 0 531.5 -221.5t218.5 -534.5q0 -312 -219 -533.5t-531 -221.5q-311 0 -532 221t-221 534zM266 790q0 -262 186 -448t448 -186t447 185.5t185 448.5q0 264 -185 449.5t-447 185.5t-448 -186t-186 -449zM1244 982l-113 -30 q-60 154 -235 154q-115 0 -187 -88.5t-72 -235.5q0 -145 70 -228t193 -83q86 0 153.5 51.5t90.5 140.5l117 -35q-30 -124 -127 -196.5t-232 -72.5q-183 0 -288.5 118t-105.5 326q0 185 108 297.5t292 112.5q265 0 336 -231z" />
<glyph unicode="&#xaa;" horiz-adv-x="809" d="M805 1205l-50 -244q-17 -83 -17 -184h-111q-4 14 -9 73q-114 -88 -212 -88q-95 0 -159 64t-64 156q1 119 110.5 185t304.5 65h95q8 45 8 78q0 134 -157 134q-78 0 -168 -88l-84 78q149 112 265 112q118 0 189.5 -62.5t71.5 -163.5q0 -52 -13 -115zM613 1136 q-309 0 -309 -148q0 -52 35.5 -87.5t85.5 -35.5q89 0 210 90l38 181h-60z" />
<glyph unicode="&#xab;" horiz-adv-x="960" d="M456 555l357 459h155l-366 -476l180 -477h-141zM88 553l358 461h154l-369 -480l184 -473h-143z" />
<glyph unicode="&#xac;" horiz-adv-x="1366" d="M180 946v131h1087v-618h-129v487h-958z" />
<glyph unicode="&#xad;" horiz-adv-x="715" d="M86 487l28 148h510l-28 -148h-510z" />
<glyph unicode="&#xae;" horiz-adv-x="1714" d="M147 790q0 314 221 535t532 221q312 0 531.5 -221.5t218.5 -534.5q0 -312 -219 -533.5t-531 -221.5q-311 0 -532 221t-221 534zM266 790q0 -262 186 -448t448 -186t447 185.5t185 448.5q0 264 -185 449.5t-447 185.5t-448 -186t-186 -449zM1129 374l-71 128 q-79 144 -125.5 180.5t-118.5 36.5h-81v-345h-125v810h275q213 0 279.5 -64t66.5 -149q0 -96 -65.5 -160.5t-176.5 -73.5q96 -39 199 -207l95 -156h-152zM886 1079h-153v-253h163q199 0 199 129q0 124 -209 124z" />
<glyph unicode="&#xaf;" horiz-adv-x="1024" d="M1241 1669h-1049v102h1049v-102z" />
<glyph unicode="&#xb0;" horiz-adv-x="811" d="M545 1546q115 0 195.5 -81.5t80.5 -197.5q0 -114 -81 -195t-195 -81q-116 0 -197.5 80.5t-81.5 195.5t81 197t198 82zM545 1100q69 0 118 48.5t49 118.5q0 72 -48.5 121.5t-118.5 48.5q-71 0 -120.5 -50t-49.5 -120q0 -68 50 -117.5t120 -49.5z" />
<glyph unicode="&#xb1;" horiz-adv-x="1366" d="M137 860v131h477v479h131v-479h482v-131h-482v-477h-131v477h-477zM137 51v131h1090v-131h-1090z" />
<glyph unicode="&#xb2;" horiz-adv-x="641" d="M315 1294l-92 29q109 192 285 192q90 0 144.5 -49t53.5 -127q0 -149 -227 -285q-118 -70 -167 -111t-79 -108h377l-18 -100h-490q32 241 322 393q166 87 166 193q0 39 -28 66.5t-71 27.5q-105 0 -176 -121z" />
<glyph unicode="&#xb3;" horiz-adv-x="641" d="M354 1075h-35l19 96q122 5 189 46.5t67 107.5q0 88 -97 88q-74 0 -159 -74l-68 70q127 106 258 106q83 0 131 -42t47 -115q0 -179 -225 -232q160 -25 160 -180q0 -88 -84 -162.5t-211 -75.5q-122 0 -232 123l101 64q54 -82 155 -82q162 0 162 141q0 121 -178 121z" />
<glyph unicode="&#xb4;" horiz-adv-x="682" d="M313 1210l281 330h229l-381 -330h-129z" />
<glyph unicode="&#xb5;" horiz-adv-x="1130" d="M833 0v125q-99 -149 -270 -149q-147 0 -250 130v-513h-178v1468h178v-516q1 -207 35.5 -276t86.5 -100.5t120 -31.5q96 0 178 67.5t82 335.5v521h178v-1061h-160z" />
<glyph unicode="&#xb6;" horiz-adv-x="1272" d="M530 1515h690v-143h-202v-1781h-121v1781h-275v-1781h-123v1083q-207 -1 -327.5 116t-120.5 310q0 188 130 301.5t349 113.5z" />
<glyph unicode="&#xb7;" horiz-adv-x="606" d="M225 649l43 225h197l-43 -225h-197z" />
<glyph unicode="&#xb8;" horiz-adv-x="682" d="M-133 -372l51 102q89 -51 217 -51q124 0 124 80q0 69 -167 69l129 172h90l-68 -90q152 -15 152 -140q0 -89 -75 -141.5t-185 -52.5q-151 0 -268 52z" />
<glyph unicode="&#xb9;" horiz-adv-x="641" d="M329 1353l19 93q103 20 151 53h56l-131 -660h96l-21 -100h-288l20 100h90l103 531q-45 -13 -95 -17z" />
<glyph unicode="&#xba;" horiz-adv-x="833" d="M208 1090q0 192 108.5 324t264.5 132q126 0 200.5 -90.5t74.5 -240.5q0 -185 -109 -319t-262 -134q-128 0 -202.5 89t-74.5 239zM327 1073q0 -93 46.5 -150t116.5 -58q100 0 173.5 108t73.5 256q1 99 -45.5 156.5t-120.5 57.5q-97 0 -170.5 -108.5t-73.5 -261.5z" />
<glyph unicode="&#xbb;" horiz-adv-x="960" d="M876 522l-358 -461h-154l369 479l-184 474h143zM508 520l-357 -459h-155l366 475l-180 478h141z" />
<glyph unicode="&#xbc;" horiz-adv-x="1921" d="M307 -203l1294 1755l80 -45l-1298 -1759zM325 1370l19 86q99 9 184 88h109l-168 -862h168l-21 -115h-444l22 115h158l143 723q-80 -38 -170 -35zM911 96l563 686h158l-139 -686h205l-21 -96h-197l-49 -252h-114l49 252h-475zM1384 96l109 547l-451 -547h342z" />
<glyph unicode="&#xbd;" horiz-adv-x="1921" d="M264 -203l1290 1751l80 -45l-1292 -1755zM336 1370l16 84q99 13 180 88h113l-168 -860h176l-25 -115h-446l21 115h159l140 714q-83 -26 -166 -26zM1241 459l-107 32q152 295 398 295q112 0 186 -68t74 -176q0 -114 -82 -200t-246 -189q-230 -142 -311 -288h522l-23 -117 h-659q31 221 324 424q216 150 280 217.5t64 142.5q0 61 -41.5 101.5t-106.5 40.5q-158 0 -272 -215z" />
<glyph unicode="&#xbe;" horiz-adv-x="1921" d="M313 -209l1301 1757l81 -49l-1300 -1753zM469 1024h-88l59 114q146 0 225 52.5t78 128.5q0 46 -34.5 78t-96.5 32q-117 0 -229 -112l-70 79q170 150 322 150q101 0 165.5 -59.5t63.5 -153.5q1 -94 -66.5 -163t-181.5 -79q191 -40 191 -198q0 -143 -109 -236.5t-252 -93.5 q-194 0 -291 188l105 68q74 -139 201 -139q105 0 168 57t63 143q0 144 -223 144zM932 94l561 688h166l-133 -688h188l-19 -94h-194l-49 -254h-115l47 254h-473zM1407 94l106 549l-450 -549h344z" />
<glyph unicode="&#xbf;" horiz-adv-x="854" d="M454 862l45 225h201l-45 -225h-201zM514 -166l112 -34q-96 -259 -346 -259q-143 0 -230 88t-87 228q0 210 266 405q100 73 154.5 151t66.5 213h133q-10 -150 -76 -252t-239 -249q-158 -134 -158 -268q1 -90 54.5 -144.5t138.5 -54.5q158 0 211 176z" />
<glyph unicode="&#xc0;" horiz-adv-x="1292" d="M1018 0l-74 456h-617l-225 -456h-159l757 1515h227l246 -1515h-155zM796 1419l-405 -829h534zM997 1622h-115l-260 330h220z" />
<glyph unicode="&#xc1;" horiz-adv-x="1323" d="M1018 0l-74 456h-617l-225 -456h-159l757 1515h227l246 -1515h-155zM796 1419l-405 -829h534zM676 1622l281 330h229l-381 -330h-129z" />
<glyph unicode="&#xc2;" horiz-adv-x="1292" d="M1018 0l-74 456h-617l-225 -456h-159l757 1515h227l246 -1515h-155zM796 1419l-405 -829h534zM952 1942l183 -320h-88l-176 181l-263 -181h-96l316 320h124z" />
<glyph unicode="&#xc3;" horiz-adv-x="1292" d="M1018 0l-74 456h-617l-225 -456h-159l757 1515h227l246 -1515h-155zM796 1419l-405 -829h534zM584 1659h-82q25 119 93 185.5t153 66.5q60 0 135 -63q74 -64 104 -64q81 0 140 127h82q-27 -117 -96 -186.5t-156 -69.5q-60 0 -129 64q-70 63 -107 63q-80 0 -137 -123z" />
<glyph unicode="&#xc4;" horiz-adv-x="1292" d="M1018 0l-74 456h-617l-225 -456h-159l757 1515h227l246 -1515h-155zM796 1419l-405 -829h534zM548 1661l35 174h174l-35 -174h-174zM957 1661l35 174h174l-34 -174h-175z" />
<glyph unicode="&#xc5;" horiz-adv-x="1292" d="M1018 0l-74 456h-617l-225 -456h-159l757 1515h227l246 -1515h-155zM796 1419l-405 -829h534zM651 1785q0 85 60 145.5t144 59.5q85 0 144 -60t59 -145q0 -84 -59.5 -143t-141.5 -59q-87 0 -146.5 59t-59.5 143zM990 1785q1 58 -39 99t-98 41q-57 0 -97 -40t-40 -98 q1 -58 41.5 -98.5t93.5 -40.5q61 1 100 41t39 96z" />
<glyph unicode="&#xc6;" horiz-adv-x="1837" d="M1898 1384h-706l-103 -526h572l-25 -133h-573l-115 -592h764l-27 -133h-917l88 456h-529l-239 -456h-159l812 1515h1184zM815 1384l-422 -801h487l158 801h-223z" />
<glyph unicode="&#xc7;" horiz-adv-x="1319" d="M1216 1083q-58 328 -362 328q-218 0 -382.5 -227.5t-164.5 -563.5q0 -242 103 -379t280 -137q248 0 401 266l129 -61q-216 -341 -542 -337h-14l-46 -62q151 -15 151 -140q1 -89 -74 -141.5t-185 -52.5q-152 0 -269 52l52 102q89 -51 217 -51q124 0 124 80q0 69 -167 69 l113 151q-202 34 -317 202t-116 433q1 371 199.5 651.5t513.5 280.5q190 0 325.5 -114t172.5 -312z" />
<glyph unicode="&#xc8;" horiz-adv-x="1161" d="M1229 1382h-709l-102 -524h573l-25 -133h-573l-117 -592h764l-24 -133h-918l295 1515h862zM973 1622h-115l-260 330h220z" />
<glyph unicode="&#xc9;" horiz-adv-x="1161" d="M1229 1382h-709l-102 -524h573l-25 -133h-573l-117 -592h764l-24 -133h-918l295 1515h862zM672 1622l281 330h229l-381 -330h-129z" />
<glyph unicode="&#xca;" horiz-adv-x="1161" d="M1229 1382h-709l-102 -524h573l-25 -133h-573l-117 -592h764l-24 -133h-918l295 1515h862zM964 1942l183 -320h-88l-176 181l-263 -181h-96l316 320h124z" />
<glyph unicode="&#xcb;" horiz-adv-x="1161" d="M1229 1382h-709l-102 -524h573l-25 -133h-573l-117 -592h764l-24 -133h-918l295 1515h862zM555 1661l35 174h174l-35 -174h-174zM964 1661l35 174h174l-34 -174h-175z" />
<glyph unicode="&#xcc;" horiz-adv-x="559" d="M252 0h-154l291 1515h153zM635 1622h-115l-260 330h220z" />
<glyph unicode="&#xcd;" horiz-adv-x="559" d="M252 0h-154l291 1515h153zM344 1622l281 330h229l-381 -330h-129z" />
<glyph unicode="&#xce;" horiz-adv-x="559" d="M252 0h-154l291 1515h153zM606 1942l183 -320h-88l-176 181l-263 -181h-96l316 320h124z" />
<glyph unicode="&#xcf;" horiz-adv-x="559" d="M252 0h-154l291 1515h153zM196 1661l35 174h174l-35 -174h-174zM605 1661l35 174h174l-34 -174h-175z" />
<glyph unicode="&#xd0;" horiz-adv-x="1407" d="M257 817l136 698h317q303 1 464 -177.5t161 -483.5q0 -391 -228 -622.5t-616 -231.5h-393l136 696h-179l23 121h179zM735 817l-23 -121h-326l-110 -563h183q346 0 531 184t185 539q1 242 -122.5 384.5t-327.5 141.5h-205l-110 -565h325z" />
<glyph unicode="&#xd1;" horiz-adv-x="1546" d="M1233 0h-109l-610 1388l-268 -1388h-148l297 1515h221l531 -1216l235 1214l148 2zM758 1659h-82q25 119 93 185.5t153 66.5q60 0 135 -63q74 -64 104 -64q81 0 140 127h82q-27 -117 -96 -186.5t-156 -69.5q-60 0 -129 64q-70 63 -107 63q-80 0 -137 -123z" />
<glyph unicode="&#xd2;" horiz-adv-x="1470" d="M692 -28q-551 0 -551 622q0 347 201 649.5t532 302.5q258 0 399.5 -160t141.5 -452q0 -353 -197 -657.5t-526 -304.5zM299 545q0 -207 102 -323.5t270 -117.5q261 1 422.5 272t161.5 576q0 201 -106.5 330t-264.5 129q-262 0 -423.5 -274t-161.5 -592zM1126 1622h-115 l-260 330h220z" />
<glyph unicode="&#xd3;" horiz-adv-x="1470" d="M692 -28q-551 0 -551 622q0 347 201 649.5t532 302.5q258 0 399.5 -160t141.5 -452q0 -353 -197 -657.5t-526 -304.5zM299 545q0 -207 102 -323.5t270 -117.5q261 1 422.5 272t161.5 576q0 201 -106.5 330t-264.5 129q-262 0 -423.5 -274t-161.5 -592zM792 1622l281 330 h229l-381 -330h-129z" />
<glyph unicode="&#xd4;" horiz-adv-x="1470" d="M692 -28q-551 0 -551 622q0 347 201 649.5t532 302.5q258 0 399.5 -160t141.5 -452q0 -353 -197 -657.5t-526 -304.5zM299 545q0 -207 102 -323.5t270 -117.5q261 1 422.5 272t161.5 576q0 201 -106.5 330t-264.5 129q-262 0 -423.5 -274t-161.5 -592zM1064 1942 l183 -320h-88l-176 181l-263 -181h-96l316 320h124z" />
<glyph unicode="&#xd5;" horiz-adv-x="1470" d="M692 -28q-551 0 -551 622q0 347 201 649.5t532 302.5q258 0 399.5 -160t141.5 -452q0 -353 -197 -657.5t-526 -304.5zM299 545q0 -207 102 -323.5t270 -117.5q261 1 422.5 272t161.5 576q0 201 -106.5 330t-264.5 129q-262 0 -423.5 -274t-161.5 -592zM700 1659h-82 q25 119 93 185.5t153 66.5q60 0 135 -63q74 -64 104 -64q81 0 140 127h82q-27 -117 -96 -186.5t-156 -69.5q-60 0 -129 64q-70 63 -107 63q-80 0 -137 -123z" />
<glyph unicode="&#xd6;" horiz-adv-x="1470" d="M692 -28q-551 0 -551 622q0 347 201 649.5t532 302.5q258 0 399.5 -160t141.5 -452q0 -353 -197 -657.5t-526 -304.5zM299 545q0 -207 102 -323.5t270 -117.5q261 1 422.5 272t161.5 576q0 201 -106.5 330t-264.5 129q-262 0 -423.5 -274t-161.5 -592zM675 1661l35 174 h174l-35 -174h-174zM1084 1661l35 174h174l-34 -174h-175z" />
<glyph unicode="&#xd7;" horiz-adv-x="1366" d="M624 739l-407 410l92 92l408 -410l409 410l92 -94l-407 -408l403 -405l-92 -93l-405 406l-406 -406l-92 93z" />
<glyph unicode="&#xd8;" horiz-adv-x="1470" d="M297 122l-129 -148l-76 69l141 163q-92 154 -92 388q0 347 201 649.5t532 302.5q247 0 388 -148l126 146l76 -70l-138 -160q89 -150 89 -380q0 -353 -197 -657.5t-526 -304.5q-252 0 -395 150zM337 327l818 947q-107 137 -271 137q-262 0 -423.5 -274t-161.5 -592 q0 -125 38 -218zM391 232q102 -128 280 -128q261 1 422.5 272t161.5 576q0 126 -45 228z" />
<glyph unicode="&#xd9;" horiz-adv-x="1458" d="M1261 467q-93 -495 -598 -495q-241 0 -366 119.5t-125 301.5q0 100 22 217l174 905h154l-170 -872q-25 -129 -25 -238q0 -135 88 -218t244 -83q197 0 309 100.5t156 333.5l184 977h152zM1061 1622h-115l-260 330h220z" />
<glyph unicode="&#xda;" horiz-adv-x="1458" d="M1261 467q-93 -495 -598 -495q-241 0 -366 119.5t-125 301.5q0 100 22 217l174 905h154l-170 -872q-25 -129 -25 -238q0 -135 88 -218t244 -83q197 0 309 100.5t156 333.5l184 977h152zM780 1622l281 330h229l-381 -330h-129z" />
<glyph unicode="&#xdb;" horiz-adv-x="1458" d="M1261 467q-93 -495 -598 -495q-241 0 -366 119.5t-125 301.5q0 100 22 217l174 905h154l-170 -872q-25 -129 -25 -238q0 -135 88 -218t244 -83q197 0 309 100.5t156 333.5l184 977h152zM1069 1942l183 -320h-88l-176 181l-263 -181h-96l316 320h124z" />
<glyph unicode="&#xdc;" horiz-adv-x="1458" d="M1261 467q-93 -495 -598 -495q-241 0 -366 119.5t-125 301.5q0 100 22 217l174 905h154l-170 -872q-25 -129 -25 -238q0 -135 88 -218t244 -83q197 0 309 100.5t156 333.5l184 977h152zM655 1661l35 174h174l-35 -174h-174zM1064 1661l35 174h174l-34 -174h-175z" />
<glyph unicode="&#xdd;" horiz-adv-x="1102" d="M639 612l-119 -612h-154l123 637l-272 878h160l217 -739l493 739h168zM631 1622l281 330h229l-381 -330h-129z" />
<glyph unicode="&#xde;" horiz-adv-x="1292" d="M712 344h-395l-65 -344h-154l291 1515h153l-65 -340h362q199 0 308.5 -103t109.5 -269q0 -200 -140.5 -329.5t-404.5 -129.5zM809 1042h-357l-110 -565h366q188 0 290 85t102 239q0 241 -291 241z" />
<glyph unicode="&#xdf;" horiz-adv-x="1163" d="M796 878q248 -105 248 -397q0 -207 -128 -358.5t-300 -150.5q-104 0 -165.5 65t-61.5 172q0 51 4 82h113q0 -113 28 -157t90 -44q116 0 196.5 118.5t80.5 284.5q0 164 -92 253t-260 91l18 107q180 3 285.5 89t105.5 204q1 86 -57.5 137.5t-161.5 50.5q-237 0 -287 -262 l-221 -1163h-145l227 1179q34 173 150.5 270t285.5 97q152 0 250 -88.5t98 -218.5q0 -232 -301 -361z" />
<glyph unicode="&#xe0;" horiz-adv-x="1065" d="M907 614l-72 -356q-24 -121 -24 -258h-135q-11 46 -11 121q-176 -143 -315 -143q-130 0 -217.5 89.5t-87.5 218.5q0 168 152.5 260.5t426.5 92.5h146q14 71 14 127q0 99 -63 154t-174 55q-117 0 -240 -123l-100 94q197 151 358 151q164 0 263 -88q97 -87 97 -226 q0 -79 -18 -169zM645 524q-455 0 -455 -229q0 -82 54.5 -137.5t132.5 -55.5q132 0 311 137l59 285h-102zM768 1210h-115l-260 330h220z" />
<glyph unicode="&#xe1;" horiz-adv-x="1065" d="M907 614l-72 -356q-24 -121 -24 -258h-135q-11 46 -11 121q-176 -143 -315 -143q-130 0 -217.5 89.5t-87.5 218.5q0 168 152.5 260.5t426.5 92.5h146q14 71 14 127q0 99 -63 154t-174 55q-117 0 -240 -123l-100 94q197 151 358 151q164 0 263 -88q97 -87 97 -226 q0 -79 -18 -169zM645 524q-455 0 -455 -229q0 -82 54.5 -137.5t132.5 -55.5q132 0 311 137l59 285h-102zM467 1210l281 330h229l-381 -330h-129z" />
<glyph unicode="&#xe2;" horiz-adv-x="1065" d="M907 614l-72 -356q-24 -121 -24 -258h-135q-11 46 -11 121q-176 -143 -315 -143q-130 0 -217.5 89.5t-87.5 218.5q0 168 152.5 260.5t426.5 92.5h146q14 71 14 127q0 99 -63 154t-174 55q-117 0 -240 -123l-100 94q197 151 358 151q164 0 263 -88q97 -87 97 -226 q0 -79 -18 -169zM645 524q-455 0 -455 -229q0 -82 54.5 -137.5t132.5 -55.5q132 0 311 137l59 285h-102zM759 1530l183 -320h-88l-176 181l-263 -181h-96l316 320h124z" />
<glyph unicode="&#xe3;" horiz-adv-x="1065" d="M907 614l-72 -356q-24 -121 -24 -258h-135q-11 46 -11 121q-176 -143 -315 -143q-130 0 -217.5 89.5t-87.5 218.5q0 168 152.5 260.5t426.5 92.5h146q14 71 14 127q0 99 -63 154t-174 55q-117 0 -240 -123l-100 94q197 151 358 151q164 0 263 -88q97 -87 97 -226 q0 -79 -18 -169zM645 524q-455 0 -455 -229q0 -82 54.5 -137.5t132.5 -55.5q132 0 311 137l59 285h-102zM395 1247h-82q25 119 93 185.5t153 66.5q60 0 135 -63q74 -64 104 -64q81 0 140 127h82q-27 -117 -96 -186.5t-156 -69.5q-60 0 -129 64q-70 63 -107 63 q-80 0 -137 -123z" />
<glyph unicode="&#xe4;" horiz-adv-x="1065" d="M907 614l-72 -356q-24 -121 -24 -258h-135q-11 46 -11 121q-176 -143 -315 -143q-130 0 -217.5 89.5t-87.5 218.5q0 168 152.5 260.5t426.5 92.5h146q14 71 14 127q0 99 -63 154t-174 55q-117 0 -240 -123l-100 94q197 151 358 151q164 0 263 -88q97 -87 97 -226 q0 -79 -18 -169zM645 524q-455 0 -455 -229q0 -82 54.5 -137.5t132.5 -55.5q132 0 311 137l59 285h-102zM350 1249l35 174h174l-35 -174h-174zM759 1249l35 174h174l-34 -174h-175z" />
<glyph unicode="&#xe5;" horiz-adv-x="1065" d="M907 614l-72 -356q-24 -121 -24 -258h-135q-11 46 -11 121q-176 -143 -315 -143q-130 0 -217.5 89.5t-87.5 218.5q0 168 152.5 260.5t426.5 92.5h146q14 71 14 127q0 99 -63 154t-174 55q-117 0 -240 -123l-100 94q197 151 358 151q164 0 263 -88q97 -87 97 -226 q0 -79 -18 -169zM645 524q-455 0 -455 -229q0 -82 54.5 -137.5t132.5 -55.5q132 0 311 137l59 285h-102zM442 1373q0 85 60 145.5t144 59.5q85 0 144 -60t59 -145q0 -84 -59.5 -143t-141.5 -59q-87 0 -146.5 59t-59.5 143zM781 1373q1 58 -39 99t-98 41q-57 0 -97 -40 t-40 -98q1 -58 41.5 -98.5t93.5 -40.5q61 1 100 41t39 96z" />
<glyph unicode="&#xe6;" horiz-adv-x="1741" d="M1646 532h-759l-9 -86q-4 -47 18 -135t91.5 -148.5t175.5 -60.5q197 0 338 254l117 -63q-190 -315 -478 -315q-254 0 -357 225q-249 -225 -433 -225q-130 0 -217.5 89.5t-87.5 218.5q0 168 152.5 260.5t426.5 92.5h146q14 71 14 127q0 99 -63 154t-174 55 q-117 0 -240 -123l-100 94q197 151 358 151q242 0 325 -194q152 194 382 194q185 1 286 -111t101 -317q0 -45 -13 -137zM913 651h598q8 32 8 70q0 117 -67.5 186.5t-179.5 69.5q-269 0 -359 -326zM645 524q-455 0 -455 -229q0 -82 54.5 -137.5t132.5 -55.5q132 0 311 137 l59 285h-102z" />
<glyph unicode="&#xe7;" horiz-adv-x="1048" d="M102 -372l51 102q90 -51 217 -51q125 0 125 80q0 69 -168 69l117 155q-157 26 -251 155.5t-95 320.5q1 260 148.5 449.5t367.5 188.5q298 0 391 -313l-137 -26q-50 219 -252 219q-154 0 -263.5 -153t-109.5 -378q0 -159 77.5 -248t213.5 -90q197 0 291 211l115 -51 q-137 -283 -410 -290l-51 -68q151 -15 151 -140q0 -89 -74.5 -141.5t-185.5 -52.5q-151 0 -268 52z" />
<glyph unicode="&#xe8;" horiz-adv-x="1100" d="M1005 532h-759l-9 -86q-1 -7 -1 -15q0 -46 19 -120q22 -88 91.5 -148.5t175.5 -60.5q197 0 338 254l117 -63q-190 -315 -478 -315q-184 0 -293 126.5t-110 343.5q1 274 150 462q149 187 383 187h2q185 0 286 -111.5t101 -316.5q0 -45 -13 -137zM272 651h598q8 32 8 73 q0 115 -67 184q-68 69 -180 69q-269 0 -359 -326zM840 1210h-115l-260 330h220z" />
<glyph unicode="&#xe9;" horiz-adv-x="1100" d="M1005 532h-759l-9 -86q-1 -7 -1 -15q0 -46 19 -120q22 -88 91.5 -148.5t175.5 -60.5q197 0 338 254l117 -63q-190 -315 -478 -315q-184 0 -293 126.5t-110 343.5q1 274 150 462q149 187 383 187h2q185 0 286 -111.5t101 -316.5q0 -45 -13 -137zM272 651h598q8 32 8 73 q0 115 -67 184q-68 69 -180 69q-269 0 -359 -326zM498 1210l281 330h229l-381 -330h-129z" />
<glyph unicode="&#xea;" horiz-adv-x="1100" d="M1005 532h-759l-9 -86q-1 -7 -1 -15q0 -46 19 -120q22 -88 91.5 -148.5t175.5 -60.5q197 0 338 254l117 -63q-190 -315 -478 -315q-184 0 -293 126.5t-110 343.5q1 274 150 462q149 187 383 187h2q185 0 286 -111.5t101 -316.5q0 -45 -13 -137zM272 651h598q8 32 8 73 q0 115 -67 184q-68 69 -180 69q-269 0 -359 -326zM800 1530l183 -320h-88l-176 181l-263 -181h-96l316 320h124z" />
<glyph unicode="&#xeb;" horiz-adv-x="1100" d="M1005 532h-759l-9 -86q-1 -7 -1 -15q0 -46 19 -120q22 -88 91.5 -148.5t175.5 -60.5q197 0 338 254l117 -63q-190 -315 -478 -315q-184 0 -293 126.5t-110 343.5q1 274 150 462q149 187 383 187h2q185 0 286 -111.5t101 -316.5q0 -45 -13 -137zM272 651h598q8 32 8 73 q0 115 -67 184q-68 69 -180 69q-269 0 -359 -326zM391 1249l35 174h174l-35 -174h-174zM800 1249l35 174h174l-34 -174h-175z" />
<glyph unicode="&#xec;" horiz-adv-x="524" d="M229 0h-143l209 1075h143zM487 1331zM344 1331zM379 1515zM522 1515zM520 1210h-115l-260 330h220z" />
<glyph unicode="&#xed;" horiz-adv-x="524" d="M229 0h-143l209 1075h143zM487 1331zM344 1331zM379 1515zM522 1515zM262 1210l281 330h229l-381 -330h-129z" />
<glyph unicode="&#xee;" horiz-adv-x="524" d="M229 0h-143l209 1075h143zM487 1331zM344 1331zM379 1515zM522 1515zM497 1530l183 -320h-88l-176 181l-263 -181h-96l316 320h124z" />
<glyph unicode="&#xef;" horiz-adv-x="524" d="M229 0h-143l209 1075h143zM487 1331zM344 1331zM379 1515zM522 1515zM102 1249l35 174h174l-35 -174h-174zM511 1249l35 174h174l-34 -174h-175z" />
<glyph unicode="&#xf0;" horiz-adv-x="1110" d="M854 1329q141 -327 141 -649q1 -315 -144.5 -508.5t-367.5 -193.5q-174 -1 -277 126t-104 346q0 274 151.5 462t366.5 188q151 0 238 -142q-18 154 -96 328l-256 -119l-39 80l256 119q-40 75 -90 149h112l66 -106l160 76l38 -84zM246 438q0 -158 67.5 -251t177.5 -93 q144 0 252.5 162.5t108.5 380.5q0 157 -68.5 250.5t-175.5 93.5q-145 0 -253.5 -160.5t-108.5 -382.5z" />
<glyph unicode="&#xf1;" horiz-adv-x="1171" d="M1028 727l-139 -727h-148l131 671q12 62 12 125q0 78 -46 122q-45 44 -120 44h-3q-163 0 -338 -219l-146 -743h-145l211 1075h129l-35 -182q176 204 362 204q125 0 203 -81t78 -213q0 -45 -6 -76zM498 1247h-82q25 119 93 185.5t153 66.5q60 0 135 -63q74 -64 104 -64 q81 0 140 127h82q-27 -117 -96 -186.5t-156 -69.5q-60 0 -129 64q-70 63 -107 63q-80 0 -137 -123z" />
<glyph unicode="&#xf2;" horiz-adv-x="1110" d="M104 444q0 277 151.5 465t368.5 188q174 0 276.5 -128.5t102.5 -342.5q0 -265 -151.5 -456.5t-364.5 -191.5q-177 0 -280 125.5t-103 340.5zM248 420q0 -143 69.5 -230.5t175.5 -87.5q150 0 258.5 161.5t108.5 383.5q0 151 -69 238.5t-181 87.5q-145 0 -253.5 -162 t-108.5 -391zM829 1209h-115l-260 330h220z" />
<glyph unicode="&#xf3;" horiz-adv-x="1110" d="M104 444q0 277 151.5 465t368.5 188q174 0 276.5 -128.5t102.5 -342.5q0 -265 -151.5 -456.5t-364.5 -191.5q-177 0 -280 125.5t-103 340.5zM248 420q0 -143 69.5 -230.5t175.5 -87.5q150 0 258.5 161.5t108.5 383.5q0 151 -69 238.5t-181 87.5q-145 0 -253.5 -162 t-108.5 -391zM518 1210l281 330h229l-381 -330h-129z" />
<glyph unicode="&#xf4;" horiz-adv-x="1110" d="M104 444q0 277 151.5 465t368.5 188q174 0 276.5 -128.5t102.5 -342.5q0 -265 -151.5 -456.5t-364.5 -191.5q-177 0 -280 125.5t-103 340.5zM248 420q0 -143 69.5 -230.5t175.5 -87.5q150 0 258.5 161.5t108.5 383.5q0 151 -69 238.5t-181 87.5q-145 0 -253.5 -162 t-108.5 -391zM800 1530l183 -320h-88l-176 181l-263 -181h-96l316 320h124z" />
<glyph unicode="&#xf5;" horiz-adv-x="1110" d="M104 444q0 277 151.5 465t368.5 188q174 0 276.5 -128.5t102.5 -342.5q0 -265 -151.5 -456.5t-364.5 -191.5q-177 0 -280 125.5t-103 340.5zM248 420q0 -143 69.5 -230.5t175.5 -87.5q150 0 258.5 161.5t108.5 383.5q0 151 -69 238.5t-181 87.5q-145 0 -253.5 -162 t-108.5 -391zM416 1247h-82q25 119 93 185.5t153 66.5q60 0 135 -63q74 -64 104 -64q81 0 140 127h82q-27 -117 -96 -186.5t-156 -69.5q-60 0 -129 64q-70 63 -107 63q-80 0 -137 -123z" />
<glyph unicode="&#xf6;" horiz-adv-x="1110" d="M104 444q0 277 151.5 465t368.5 188q174 0 276.5 -128.5t102.5 -342.5q0 -265 -151.5 -456.5t-364.5 -191.5q-177 0 -280 125.5t-103 340.5zM248 420q0 -143 69.5 -230.5t175.5 -87.5q150 0 258.5 161.5t108.5 383.5q0 151 -69 238.5t-181 87.5q-145 0 -253.5 -162 t-108.5 -391zM391 1249l35 174h174l-35 -174h-174zM800 1249l35 174h174l-34 -174h-175z" />
<glyph unicode="&#xf7;" horiz-adv-x="1366" d="M643 1079v178h158v-178h-158zM178 696v125h1087v-125h-1087zM643 260v178h158v-178h-158z" />
<glyph unicode="&#xf8;" horiz-adv-x="1110" d="M236 72l-99 -117l-76 69l111 131q-68 117 -68 289q0 277 151.5 465t368.5 188q156 0 257 -106l90 106l75 -69l-104 -123q61 -117 61 -279q0 -265 -151.5 -456.5t-364.5 -191.5q-152 0 -251 94zM272 273l519 612q-69 88 -181 88q-145 0 -253.5 -162t-108.5 -391 q0 -82 24 -147zM327 179q68 -77 166 -77q150 0 258.5 161.5t108.5 383.5q0 77 -19 139z" />
<glyph unicode="&#xf9;" horiz-adv-x="1171" d="M874 0h-131l35 186q-179 -208 -363 -208h-3q-118 0 -195 79q-78 80 -78 221q0 66 14 137l133 660h144l-127 -651q-19 -95 -19 -158q0 -70 45 -111t121 -41q157 0 344 226l144 735h143zM840 1210h-115l-260 330h220z" />
<glyph unicode="&#xfa;" horiz-adv-x="1171" d="M874 0h-131l35 186q-179 -208 -363 -208h-3q-118 0 -195 79q-78 80 -78 221q0 66 14 137l133 660h144l-127 -651q-19 -95 -19 -158q0 -70 45 -111t121 -41q157 0 344 226l144 735h143zM539 1210l281 330h229l-381 -330h-129z" />
<glyph unicode="&#xfb;" horiz-adv-x="1171" d="M874 0h-131l35 186q-179 -208 -363 -208h-3q-118 0 -195 79q-78 80 -78 221q0 66 14 137l133 660h144l-127 -651q-19 -95 -19 -158q0 -70 45 -111t121 -41q157 0 344 226l144 735h143zM827 1530l183 -320h-88l-176 181l-263 -181h-96l316 320h124z" />
<glyph unicode="&#xfc;" horiz-adv-x="1171" d="M874 0h-131l35 186q-179 -208 -363 -208h-3q-118 0 -195 79q-78 80 -78 221q0 66 14 137l133 660h144l-127 -651q-19 -95 -19 -158q0 -70 45 -111t121 -41q157 0 344 226l144 735h143zM424 1249l35 174h174l-35 -174h-174zM833 1249l35 174h174l-34 -174h-175z" />
<glyph unicode="&#xfd;" horiz-adv-x="940" d="M366 -166q-134 -266 -336 -266q-71 0 -136 31l24 127q64 -25 112 -25q146 0 269 277l-176 1097h153l121 -909l432 909h164zM432 1210l281 330h229l-381 -330h-129z" />
<glyph unicode="&#xfe;" horiz-adv-x="1179" d="M252 110l-105 -542h-143l375 1947h143l-102 -549q132 134 292 134q180 0 274.5 -114t94.5 -327q1 -294 -148 -488.5t-370 -194.5q-143 0 -311 134zM282 266q118 -170 273 -170q157 1 269 164t112 395q0 156 -65 241t-183 85q-102 0 -198 -73t-107 -128z" />
<glyph unicode="&#xff;" horiz-adv-x="940" d="M366 -166q-134 -266 -336 -266q-71 0 -136 31l24 127q64 -25 112 -25q146 0 269 277l-176 1097h153l121 -909l432 909h164zM292 1249l35 174h174l-35 -174h-174zM701 1249l35 174h174l-34 -174h-175z" />
<glyph unicode="&#x131;" horiz-adv-x="524" d="M229 0h-143l209 1075h143zM487 1331zM344 1331zM379 1515zM522 1515z" />
<glyph unicode="&#x152;" horiz-adv-x="2062" d="M2126 1382h-668l-102 -524h532l-25 -133h-532l-117 -592h723l-24 -133h-877l31 159q-176 -187 -381 -187q-256 -1 -400.5 165t-144.5 457q0 347 201 649.5t532 302.5q284 0 408 -281l49 250h821zM299 545q0 -207 102 -323.5t270 -117.5q251 0 397 247.5t146 600.5 q1 210 -89 334.5t-241 124.5q-262 0 -423.5 -274t-161.5 -592z" />
<glyph unicode="&#x153;" horiz-adv-x="1845" d="M1751 532h-760l-8 -86q-5 -49 18 -137.5t92.5 -147t173.5 -59.5q198 0 338 254l117 -63q-189 -315 -477 -315q-251 0 -360 255q-170 -255 -398 -255q-177 0 -280 125.5t-103 340.5q0 277 151.5 465t368.5 188q229 0 334 -250q168 250 418 250q185 0 286 -111.5 t101 -316.5q0 -45 -12 -137zM1018 651h598q8 32 8 70q0 117 -67.5 186.5t-180.5 69.5q-268 0 -358 -326zM248 420q0 -143 69.5 -230.5t175.5 -87.5q150 0 258.5 161.5t108.5 383.5q0 151 -69 238.5t-181 87.5q-145 0 -253.5 -162t-108.5 -391z" />
<glyph unicode="&#x178;" horiz-adv-x="1102" d="M639 612l-119 -612h-154l123 637l-272 878h160l217 -739l493 739h168zM473 1661l35 174h174l-35 -174h-174zM882 1661l35 174h174l-34 -174h-175z" />
<glyph unicode="&#x2c6;" horiz-adv-x="682" d="M585 1530l183 -320h-88l-176 181l-263 -181h-96l316 320h124z" />
<glyph unicode="&#x2da;" horiz-adv-x="682" d="M289 1374q0 85 60 145.5t144 59.5q85 0 144 -60t59 -145q0 -84 -59.5 -143t-141.5 -59q-87 0 -146.5 59t-59.5 143zM628 1374q1 58 -39 99t-98 41q-57 0 -97 -40t-40 -98q1 -58 41.5 -98.5t93.5 -40.5q61 1 100 41t39 96z" />
<glyph unicode="&#x2dc;" horiz-adv-x="682" d="M221 1247h-82q25 119 93 185.5t153 66.5q60 0 135 -63q74 -64 104 -64q81 0 140 127h82q-27 -117 -96 -186.5t-156 -69.5q-60 0 -129 64q-70 63 -107 63q-80 0 -137 -123z" />
<glyph unicode="&#x2000;" horiz-adv-x="995" />
<glyph unicode="&#x2001;" horiz-adv-x="1990" />
<glyph unicode="&#x2002;" horiz-adv-x="995" />
<glyph unicode="&#x2003;" horiz-adv-x="1990" />
<glyph unicode="&#x2004;" horiz-adv-x="663" />
<glyph unicode="&#x2005;" horiz-adv-x="497" />
<glyph unicode="&#x2006;" horiz-adv-x="331" />
<glyph unicode="&#x2007;" horiz-adv-x="331" />
<glyph unicode="&#x2008;" horiz-adv-x="248" />
<glyph unicode="&#x2009;" horiz-adv-x="398" />
<glyph unicode="&#x200a;" horiz-adv-x="110" />
<glyph unicode="&#x2010;" horiz-adv-x="715" d="M86 487l28 148h510l-28 -148h-510z" />
<glyph unicode="&#x2011;" horiz-adv-x="715" d="M86 487l28 148h510l-28 -148h-510z" />
<glyph unicode="&#x2012;" horiz-adv-x="715" d="M86 487l28 148h510l-28 -148h-510z" />
<glyph unicode="&#x2013;" horiz-adv-x="1024" d="M0 495v129h1024v-129h-1024z" />
<glyph unicode="&#x2014;" horiz-adv-x="2048" d="M0 495v129h2048v-129h-2048z" />
<glyph unicode="&#x2018;" horiz-adv-x="575" d="M311 1214l209 301h86l-193 -301h97l-43 -221h-199z" />
<glyph unicode="&#x2019;" horiz-adv-x="573" d="M340 1294l43 221h198l-43 -221l-211 -303h-81l188 303h-94z" />
<glyph unicode="&#x201a;" horiz-adv-x="573" d="M92 0l43 221h199l-43 -221l-211 -303h-82l188 303h-94z" />
<glyph unicode="&#x201c;" horiz-adv-x="960" d="M315 1241l209 295h84l-193 -295h93l-43 -225h-193zM706 1241l207 295h82l-192 -295h94l-43 -225h-191z" />
<glyph unicode="&#x201d;" horiz-adv-x="960" d="M348 1298l41 217h190l-41 -217l-211 -303h-81l196 303h-94zM735 1298l41 217h192l-41 -217l-210 -303h-82l194 303h-94z" />
<glyph unicode="&#x201e;" horiz-adv-x="960" d="M98 0l41 217h190l-40 -217l-209 -303h-82l194 303h-94zM485 0l41 217h193l-41 -217l-209 -303h-82l192 303h-94z" />
<glyph unicode="&#x2022;" horiz-adv-x="731" d="M401 971q105 0 178.5 -74t73.5 -178q0 -105 -73.5 -179.5t-178.5 -74.5q-104 0 -179 74.5t-75 179.5q1 104 75.5 178t178.5 74z" />
<glyph unicode="&#x2026;" horiz-adv-x="1921" d="M133 0l43 229h199l-43 -229h-199zM770 0l43 229h196l-43 -229h-196zM1405 0l43 229h198l-43 -229h-198z" />
<glyph unicode="&#x202f;" horiz-adv-x="398" />
<glyph unicode="&#x2039;" horiz-adv-x="598" d="M90 553l358 461h154l-369 -480l185 -473h-144z" />
<glyph unicode="&#x203a;" horiz-adv-x="598" d="M510 520l-357 -459h-155l366 475l-180 478h141z" />
<glyph unicode="&#x205f;" horiz-adv-x="497" />
<glyph unicode="&#x20ac;" d="M340 930h799l-23 -115h-803q-10 -71 -12 -115h795l-23 -114h-774q10 -234 108.5 -359t262.5 -125q123 0 211 64.5t172 204.5l125 -62q-116 -176 -237 -258t-286 -82q-223 0 -361 162.5t-147 454.5h-92l23 114h72q4 50 14 115h-109l23 115h110q90 302 257.5 459t392.5 157 q171 0 292 -96t175 -279l-138 -36q-75 288 -336 288q-154 0 -288.5 -131t-202.5 -362z" />
<glyph unicode="&#x2122;" horiz-adv-x="1558" d="M538 839h-112v576h-219v100h551v-100h-220v-576zM983 839h-103v676h166l170 -540l164 540h164v-676h-105v568l-172 -568h-102l-182 576v-576z" />
<glyph unicode="&#xe000;" horiz-adv-x="1075" d="M0 1075h1075v-1075h-1075v1075z" />
<glyph unicode="&#xfb01;" horiz-adv-x="1126" d="M715 1368q-40 14 -80 14q-55 0 -90 -34t-82 -273h192l-20 -123h-197l-182 -952h-144l183 952h-183l23 123h184q50 302 123.5 371t185.5 69q57 0 109 -16zM1089 1331h-143l35 184h143zM831 0h-143l211 1075h143z" />
<glyph unicode="&#xfb02;" horiz-adv-x="1126" d="M715 1368q-40 14 -80 14q-55 0 -90 -34t-82 -273h192l-20 -123h-197l-182 -952h-144l183 952h-183l23 123h184q50 302 123.5 371t185.5 69q57 0 109 -16zM833 0h-143l291 1515h143z" />
<glyph unicode="&#xfb03;" horiz-adv-x="1732" d="M1437 0h-143l211 1075h143zM1695 1331h-143l35 184h143zM1319 1368q-40 14 -80 14q-55 0 -90 -34t-82 -273h192l-20 -123h-197l-182 -952h-144l183 952h-183l23 123h184q50 302 123.5 371t185.5 69q57 0 109 -16zM715 1368q-40 14 -80 14q-55 0 -90 -34t-82 -273h192 l-20 -123h-197l-182 -952h-144l183 952h-183l23 123h184q50 302 123.5 371t185.5 69q57 0 109 -16z" />
<glyph unicode="&#xfb04;" horiz-adv-x="1732" d="M1437 0h-143l291 1515h143zM1319 1368q-40 14 -80 14q-55 0 -90 -34t-82 -273h192l-20 -123h-197l-182 -952h-144l183 952h-183l23 123h184q50 302 123.5 371t185.5 69q57 0 109 -16zM715 1368q-40 14 -80 14q-55 0 -90 -34t-82 -273h192l-20 -123h-197l-182 -952h-144 l183 952h-183l23 123h184q50 302 123.5 371t185.5 69q57 0 109 -16z" />
</font>
</defs>
</svg>
